<?xml version="1.0" standalone="no"?>
<!DOCTYPE svg PUBLIC "-//W3C//DTD SVG 20010904//EN" "http://www.w3.org/TR/2001/REC-SVG-20010904/DTD/svg10.dtd">
<svg xmlns="http://www.w3.org/2000/svg" version="1.0" width="360.000000pt" height="360.000000pt" viewBox="0 0 360.000000 360.000000" preserveAspectRatio="xMidYMid meet">
<metadata>
Created by potrace 1.16, written by Peter Selinger 2001-2019
<meta name="Producer" content="Online-Convert"/></metadata>
<g transform="translate(0.000000,360.000000) scale(0.130000,-0.130000)" fill="#fff" stroke="none">
<path d="M1180 2694 c153 -154 187 -187 418 -404 l182 -172 -34 -47 c-49 -67 -68 -109 -61 -132 4 -11 27 -50 52 -86 l45 -66 -64 6 c-192 19 -380 152 -468 332 -47 96 -63 174 -58 292 2 57 1 103 -3 103 -6 0 -30 -46 -35 -65 -1 -5 -10 -39 -19 -75 -35 -131 -25 -361 24 -550 19 -73 71 -232 90 -275 10 -22 31 -69 47 -105 38 -86 105 -207 168 -305 29 -44 53 -82 53 -85 1 -3 15 -21 31 -40 160 -185 223 -244 251 -235 31 9 189 181 263 286 136 191 247 414 321 644 61 192 72 260 72 460 0 170 -2 185 -28 263 -15 45 -31 82 -35 82 -4 0 -7 -53 -7 -117 0 -127 -9 -169 -57 -273 -55 -117 -155 -220 -274 -280 -64 -32 -186 -64 -228 -58 l-26 3 45 64 c59 84 58 107 -2 195 l-47 69 35 31 c145 127 709 661 701 664 -6 2 -32 -8 -59 -21 -112 -57 -214 -59 -428 -11 -97 22 -145 27 -250 27 -119 0 -142 -3 -270 -37 -122 -33 -151 -37 -222 -34 -69 4 -93 10 -156 41 -41 20 -79 37 -83 37 -5 0 47 -57 116 -126z"/>
<path d="M1284 2464 c-22 -148 55 -294 171 -325 50 -14 132 -6 175 16 l32 17 -27 28 c-23 24 -31 27 -52 19 -37 -14 -73 -11 -120 10 -59 27 -93 83 -100 163 -4 49 -11 69 -31 91 -14 15 -29 27 -33 27 -4 0 -11 -21 -15 -46z"/>
<path d="M2222 2477 c-17 -18 -22 -36 -22 -78 0 -68 -27 -129 -71 -160 -29 -20 -46 -24 -110 -24 -62 0 -81 -4 -98 -19 -29 -26 -27 -31 21 -50 51 -21 143 -22 189 -3 102 42 165 177 145 311 -8 52 -22 57 -54 23z"/>
</g>
</svg>
